<?xml version="1.0" encoding="UTF-8" standalone="no"?>
<svg
   xmlns:dc="http://purl.org/dc/elements/1.1/"
   xmlns:cc="http://creativecommons.org/ns#"
   xmlns:rdf="http://www.w3.org/1999/02/22-rdf-syntax-ns#"
   xmlns:svg="http://www.w3.org/2000/svg"
   xmlns="http://www.w3.org/2000/svg"
   xmlns:xlink="http://www.w3.org/1999/xlink"
   id="svg8"
   version="1.1"
   viewBox="0 0 100 100"
   height="6.25pc"
   width="6.25pc">
  <defs
     id="defs2">
    <linearGradient
       id="linearGradient871">
      <stop
         id="stop867"
         offset="0"
         style="stop-color:#000000;stop-opacity:1" />
      <stop
         id="stop869"
         offset="1"
         style="stop-color:#000000;stop-opacity:0" />
    </linearGradient>
    <radialGradient
       gradientUnits="userSpaceOnUse"
       gradientTransform="matrix(3.5786496,0,0,3.5786288,-129.70732,-804.91212)"
       r="7.8286824"
       fy="320.53914"
       fx="50.255089"
       cy="320.53914"
       cx="50.255089"
       id="radialGradient873"
       xlink:href="#linearGradient871" />
  </defs>
  <metadata
     id="metadata5">
    <rdf:RDF>
      <cc:Work
         rdf:about="">
        <dc:format>image/svg+xml</dc:format>
        <dc:type
           rdf:resource="http://purl.org/dc/dcmitype/StillImage" />
        <dc:title></dc:title>
      </cc:Work>
    </rdf:RDF>
  </metadata>
  <g
     transform="translate(0,-270.54165)"
     id="layer1">
    <path
       d="m 50.715521,275.19662 a 46.734009,46.734009 0 0 1 46.508002,46.81503 46.734009,46.734009 0 0 1 -46.67113,46.6524 A 46.734009,46.734009 0 0 1 3.7560363,322.13726 46.734009,46.734009 0 0 1 50.138038,275.1974"
       id="path858"
       style="opacity:1;fill:#000000;fill-opacity:1;stroke:none;stroke-width:2.92485929;stroke-linecap:round;stroke-linejoin:round;stroke-miterlimit:3.20000005;stroke-dasharray:none;stroke-opacity:1;paint-order:normal" />
    <g
       transform="matrix(1.499159,0,0,1.499159,-25.202331,-138.36068)"
       id="g1032">
      <path
         style="fill:#b01400;fill-opacity:1;stroke:none;stroke-width:1px;stroke-linecap:butt;stroke-linejoin:miter;stroke-opacity:1"
         d="m 45.670758,284.48928 9.797905,0.11755 -5.197311,35.89845 z"
         id="path924" />
      <path
         style="fill:#f99121;fill-opacity:1;stroke:none;stroke-width:1px;stroke-linecap:butt;stroke-linejoin:miter;stroke-opacity:1"
         d="m 53.528337,290.34344 -3.00578,-1.86495 -0.251205,32.02679 z"
         id="path926" />
      <path
         style="fill:#ef5924;fill-opacity:1;stroke:none;stroke-width:1px;stroke-linecap:butt;stroke-linejoin:miter;stroke-opacity:1"
         d="m 47.472899,290.27079 3.049658,-1.7923 -0.251205,32.02679 z"
         id="path928" />
      <path
         style="opacity:0.93000034;fill:#f65525;fill-opacity:1;stroke:#f7ffff;stroke-width:0.57935274;stroke-linecap:square;stroke-linejoin:round;stroke-miterlimit:3.20000005;stroke-dasharray:none;stroke-opacity:1;paint-order:normal"
         id="path876"
         d="m 48.379569,313.73644 0.591153,4.18394 -3.408996,-2.49671 -3.79649,1.85513 1.32108,-4.01368 -2.937513,-3.03741 4.225469,0.0161 1.981007,-3.73235 1.290403,4.02364 4.161843,0.73069 z"
         transform="matrix(0.83467285,-0.06423807,0.06423807,0.83467285,-7.7687874,28.129709)" />
    </g>
    <path
       style="opacity:0.93000034;fill:#f65525;fill-opacity:1;stroke:#f8ffff;stroke-width:0.9631325;stroke-linecap:square;stroke-linejoin:round;stroke-miterlimit:3.20000005;stroke-dasharray:none;stroke-opacity:1;paint-order:normal"
       id="path1021"
       d="m 48.379569,313.73644 0.591153,4.18394 -3.408996,-2.49671 -3.79649,1.85513 1.32108,-4.01368 -2.937513,-3.03741 4.225469,0.0161 1.981007,-3.73235 1.290403,4.02364 4.161843,0.73069 z"
       transform="matrix(0.37381055,0.11360683,-0.11360683,0.37381055,88.112394,163.93715)" />
    <g
       transform="matrix(0.9384222,-0.73052915,0.73052915,0.9384222,-231.23431,78.187924)"
       id="g948">
      <path
         id="path940"
         d="m 45.654495,284.5231 9.797905,0.11755 -5.197311,35.89845 z"
         style="fill:#851341;fill-opacity:1;stroke:none;stroke-width:1px;stroke-linecap:butt;stroke-linejoin:miter;stroke-opacity:1" />
      <path
         id="path942"
         d="m 53.512074,290.37726 -3.00578,-1.86495 -0.251205,32.02679 z"
         style="fill:#a400be;fill-opacity:1;stroke:none;stroke-width:1px;stroke-linecap:butt;stroke-linejoin:miter;stroke-opacity:1" />
      <path
         id="path944"
         d="m 47.456636,290.30461 3.049658,-1.7923 -0.251205,32.02679 z"
         style="fill:#a20188;fill-opacity:1;stroke:none;stroke-width:1px;stroke-linecap:butt;stroke-linejoin:miter;stroke-opacity:1" />
      <path
         transform="matrix(0.83467285,-0.06423807,0.06423807,0.83467285,-7.7850505,28.163531)"
         d="m 48.379569,313.73644 0.591153,4.18394 -3.408996,-2.49671 -3.79649,1.85513 1.32108,-4.01368 -2.937513,-3.03741 4.225469,0.0161 1.981007,-3.73235 1.290403,4.02364 4.161843,0.73069 z"
         id="path946"
         style="opacity:0.93000034;fill:#a103bd;fill-opacity:1;stroke:#f7ffff;stroke-width:0.57935274;stroke-linecap:square;stroke-linejoin:round;stroke-miterlimit:3.20000005;stroke-dasharray:none;stroke-opacity:1;paint-order:normal" />
    </g>
    <g
       id="g977"
       transform="matrix(1.1018678,0.44743286,-0.44743286,1.1018678,138.25694,-33.562217)">
      <path
         style="fill:#ec171f;fill-opacity:1;stroke:none;stroke-width:1px;stroke-linecap:butt;stroke-linejoin:miter;stroke-opacity:1"
         d="m 45.654495,284.5231 9.797905,0.11755 -5.197311,35.89845 z"
         id="path969" />
      <path
         style="fill:#ff379b;fill-opacity:1;stroke:none;stroke-width:1px;stroke-linecap:butt;stroke-linejoin:miter;stroke-opacity:1"
         d="m 53.512074,290.37726 -3.00578,-1.86495 -0.251205,32.02679 z"
         id="path971" />
      <path
         style="fill:#ff71c8;fill-opacity:1;stroke:none;stroke-width:1px;stroke-linecap:butt;stroke-linejoin:miter;stroke-opacity:1"
         d="m 47.456636,290.30461 3.049658,-1.7923 -0.251205,32.02679 z"
         id="path973" />
      <path
         style="opacity:0.93000034;fill:#f72ce2;fill-opacity:1;stroke:#f7ffff;stroke-width:0.57935274;stroke-linecap:square;stroke-linejoin:round;stroke-miterlimit:3.20000005;stroke-dasharray:none;stroke-opacity:1;paint-order:normal"
         id="path975"
         d="m 48.379569,313.73644 0.591153,4.18394 -3.408996,-2.49671 -3.79649,1.85513 1.32108,-4.01368 -2.937513,-3.03741 4.225469,0.0161 1.981007,-3.73235 1.290403,4.02364 4.161843,0.73069 z"
         transform="matrix(0.83467285,-0.06423807,0.06423807,0.83467285,-7.7850505,28.163531)" />
    </g>
    <g
       transform="matrix(0.70188032,0.15047623,-0.15047623,0.70188032,63.140966,109.58941)"
       id="g987">
      <path
         id="path979"
         d="m 45.654495,284.5231 9.797905,0.11755 -5.197311,35.89845 z"
         style="fill:#e25200;fill-opacity:1;stroke:none;stroke-width:1px;stroke-linecap:butt;stroke-linejoin:miter;stroke-opacity:1" />
      <path
         id="path981"
         d="m 53.512074,290.37726 -3.00578,-1.86495 -0.251205,32.02679 z"
         style="fill:#f2fe27;fill-opacity:1;stroke:none;stroke-width:1px;stroke-linecap:butt;stroke-linejoin:miter;stroke-opacity:1" />
      <path
         id="path983"
         d="m 47.456636,290.30461 3.049658,-1.7923 -0.251205,32.02679 z"
         style="fill:#f0ac1f;fill-opacity:1;stroke:none;stroke-width:1px;stroke-linecap:butt;stroke-linejoin:miter;stroke-opacity:1" />
      <path
         transform="matrix(0.83467285,-0.06423807,0.06423807,0.83467285,-7.7850505,28.163531)"
         d="m 48.379569,313.73644 0.591153,4.18394 -3.408996,-2.49671 -3.79649,1.85513 1.32108,-4.01368 -2.937513,-3.03741 4.225469,0.0161 1.981007,-3.73235 1.290403,4.02364 4.161843,0.73069 z"
         id="path985"
         style="opacity:0.93000034;fill:#fafe01;fill-opacity:1;stroke:#f7ffff;stroke-width:0.57935274;stroke-linecap:square;stroke-linejoin:round;stroke-miterlimit:3.20000005;stroke-dasharray:none;stroke-opacity:1;paint-order:normal" />
    </g>
    <g
       id="g997"
       transform="matrix(0.92473657,-0.29867326,0.29867326,0.92473657,-92.071137,60.774023)">
      <path
         style="fill:#0b00a7;fill-opacity:1;stroke:none;stroke-width:1px;stroke-linecap:butt;stroke-linejoin:miter;stroke-opacity:1"
         d="m 45.654495,284.5231 9.797905,0.11755 -5.197311,35.89845 z"
         id="path989" />
      <path
         style="fill:#093bf5;fill-opacity:1;stroke:none;stroke-width:1px;stroke-linecap:butt;stroke-linejoin:miter;stroke-opacity:1"
         d="m 53.512074,290.37726 -3.00578,-1.86495 -0.251205,32.02679 z"
         id="path991" />
      <path
         style="fill:#017cfb;fill-opacity:1;stroke:none;stroke-width:1px;stroke-linecap:butt;stroke-linejoin:miter;stroke-opacity:1"
         d="m 47.456636,290.30461 3.049658,-1.7923 -0.251205,32.02679 z"
         id="path993" />
      <path
         style="opacity:0.93000034;fill:#0252fe;fill-opacity:1;stroke:#f7ffff;stroke-width:0.57935274;stroke-linecap:square;stroke-linejoin:round;stroke-miterlimit:3.20000005;stroke-dasharray:none;stroke-opacity:1;paint-order:normal"
         id="path995"
         d="m 48.379569,313.73644 0.591153,4.18394 -3.408996,-2.49671 -3.79649,1.85513 1.32108,-4.01368 -2.937513,-3.03741 4.225469,0.0161 1.981007,-3.73235 1.290403,4.02364 4.161843,0.73069 z"
         transform="matrix(0.83467285,-0.06423807,0.06423807,0.83467285,-7.7850505,28.163531)" />
    </g>
    <g
       transform="matrix(1.047638,0.94662949,-0.94662949,1.047638,301.06277,-41.28206)"
       id="g1007">
      <path
         id="path999"
         d="m 45.654495,284.5231 9.797905,0.11755 -5.197311,35.89845 z"
         style="fill:#034400;fill-opacity:1;stroke:none;stroke-width:1px;stroke-linecap:butt;stroke-linejoin:miter;stroke-opacity:1" />
      <path
         id="path1001"
         d="m 53.512074,290.37726 -3.00578,-1.86495 -0.251205,32.02679 z"
         style="fill:#01b100;fill-opacity:1;stroke:none;stroke-width:1px;stroke-linecap:butt;stroke-linejoin:miter;stroke-opacity:1" />
      <path
         id="path1003"
         d="m 47.456636,290.30461 3.049658,-1.7923 -0.251205,32.02679 z"
         style="fill:#027b01;fill-opacity:1;stroke:none;stroke-width:1px;stroke-linecap:butt;stroke-linejoin:miter;stroke-opacity:1" />
      <path
         transform="matrix(0.83467285,-0.06423807,0.06423807,0.83467285,-7.7850505,28.163531)"
         d="m 48.379569,313.73644 0.591153,4.18394 -3.408996,-2.49671 -3.79649,1.85513 1.32108,-4.01368 -2.937513,-3.03741 4.225469,0.0161 1.981007,-3.73235 1.290403,4.02364 4.161843,0.73069 z"
         id="path1005"
         style="opacity:0.93000034;fill:#44d602;fill-opacity:1;stroke:#f7ffff;stroke-width:0.57935274;stroke-linecap:square;stroke-linejoin:round;stroke-miterlimit:3.20000005;stroke-dasharray:none;stroke-opacity:1;paint-order:normal" />
    </g>
    <g
       id="g1017"
       transform="matrix(0.58958301,-0.65249353,0.65249353,0.58958301,-188.65462,186.04681)">
      <path
         style="fill:#e25200;fill-opacity:1;stroke:none;stroke-width:1px;stroke-linecap:butt;stroke-linejoin:miter;stroke-opacity:1"
         d="m 45.654495,284.5231 9.797905,0.11755 -5.197311,35.89845 z"
         id="path1009" />
      <path
         style="fill:#f2fe27;fill-opacity:1;stroke:none;stroke-width:1px;stroke-linecap:butt;stroke-linejoin:miter;stroke-opacity:1"
         d="m 53.512074,290.37726 -3.00578,-1.86495 -0.251205,32.02679 z"
         id="path1011" />
      <path
         style="fill:#f0ac1f;fill-opacity:1;stroke:none;stroke-width:1px;stroke-linecap:butt;stroke-linejoin:miter;stroke-opacity:1"
         d="m 47.456636,290.30461 3.049658,-1.7923 -0.251205,32.02679 z"
         id="path1013" />
      <path
         style="opacity:0.93000034;fill:#fafe01;fill-opacity:1;stroke:#f7ffff;stroke-width:0.57935274;stroke-linecap:square;stroke-linejoin:round;stroke-miterlimit:3.20000005;stroke-dasharray:none;stroke-opacity:1;paint-order:normal"
         id="path1015"
         d="m 48.379569,313.73644 0.591153,4.18394 -3.408996,-2.49671 -3.79649,1.85513 1.32108,-4.01368 -2.937513,-3.03741 4.225469,0.0161 1.981007,-3.73235 1.290403,4.02364 4.161843,0.73069 z"
         transform="matrix(0.83467285,-0.06423807,0.06423807,0.83467285,-7.7850505,28.163531)" />
    </g>
    <path
       d="m 77.832428,287.8691 a 0.72435498,0.72435498 0 0 1 0.720852,0.72561 0.72435498,0.72435498 0 0 1 -0.72338,0.72309 0.72435498,0.72435498 0 0 1 -0.725322,-0.72114 0.72435498,0.72435498 0 0 1 0.718899,-0.72755"
       id="path1036"
       style="opacity:1;fill:#034df8;fill-opacity:1;stroke:none;stroke-width:0.10304631;stroke-linecap:square;stroke-linejoin:round;stroke-miterlimit:3.20000005;stroke-dasharray:none;stroke-opacity:1;paint-order:normal" />
    <path
       d="M 50.273479,314.16253 A 28.016111,28.016111 0 0 1 78.154104,342.22721 28.016111,28.016111 0 0 1 50.175687,370.1944 28.016111,28.016111 0 0 1 22.122199,342.30251 28.016111,28.016111 0 0 1 49.927289,314.163"
       id="path865"
       style="opacity:1;fill:url(#radialGradient873);fill-opacity:1;stroke:none;stroke-width:6.98194551;stroke-linecap:round;stroke-linejoin:round;stroke-miterlimit:3.20000005;stroke-dasharray:none;stroke-opacity:1;paint-order:normal" />
    <text
       transform="matrix(1.0012001,-0.06557676,0.06602008,0.99447714,0,0)"
       id="text863"
       y="339.66254"
       x="8.659317"
       style="font-style:normal;font-weight:normal;font-size:25.90316963px;line-height:1.25;font-family:sans-serif;letter-spacing:0px;word-spacing:0px;fill:#ffffff;fill-opacity:1;stroke:#7ae26f;stroke-width:0.64757925;stroke-opacity:1"
       xml:space="preserve"><tspan
         style="font-style:normal;font-variant:normal;font-weight:normal;font-stretch:normal;font-family:'Super Magic';-inkscape-font-specification:'Super Magic';fill:#ffffff;fill-opacity:1;stroke:#7ae26f;stroke-width:0.64757925;stroke-opacity:1"
         y="339.66254"
         x="8.659317"
         id="tspan861">You</tspan></text>
    <text
       transform="rotate(-5.8837944)"
       id="text862"
       y="350.63055"
       x="-20.015135"
       style="font-style:normal;font-weight:normal;font-size:26.47739792px;line-height:1.25;font-family:sans-serif;letter-spacing:0px;word-spacing:0px;fill:#000000;fill-opacity:1;stroke:#58a5b2;stroke-width:0.66193491;stroke-opacity:1"
       xml:space="preserve"><tspan
         style="font-style:normal;font-variant:normal;font-weight:normal;font-stretch:normal;font-family:'Super Magic';-inkscape-font-specification:'Super Magic';fill:#ffffff;fill-opacity:1;stroke:#58a5b2;stroke-width:0.66193491;stroke-opacity:1"
         y="350.63055"
         x="-20.015135"
         id="tspan860">Dance</tspan></text>
    <path
       transform="matrix(0.56056472,0.02485513,-0.02485513,0.56056472,16.655152,115.51536)"
       d="m 48.379569,313.73644 0.591153,4.18394 -3.408996,-2.49671 -3.79649,1.85513 1.32108,-4.01368 -2.937513,-3.03741 4.225469,0.0161 1.981007,-3.73235 1.290403,4.02364 4.161843,0.73069 z"
       id="path875"
       style="opacity:0.93000034;fill:#3fcd02;fill-opacity:1;stroke:#f8ffff;stroke-width:0.9631325;stroke-linecap:square;stroke-linejoin:round;stroke-miterlimit:3.20000005;stroke-dasharray:none;stroke-opacity:1;paint-order:normal" />
    <path
       style="opacity:1;fill:#03c1f8;fill-opacity:1;stroke:none;stroke-width:0.10304631;stroke-linecap:square;stroke-linejoin:round;stroke-miterlimit:3.20000005;stroke-dasharray:none;stroke-opacity:1;paint-order:normal"
       id="path877"
       d="m 65.717392,292.22292 a 0.72435498,0.72435498 0 0 1 0.720852,0.72561 0.72435498,0.72435498 0 0 1 -0.72338,0.72309 0.72435498,0.72435498 0 0 1 -0.725322,-0.72114 0.72435498,0.72435498 0 0 1 0.718899,-0.72755" />
    <path
       d="m 41.298027,301.97176 a 0.72435498,0.72435498 0 0 1 0.720852,0.72561 0.72435498,0.72435498 0 0 1 -0.72338,0.72309 0.72435498,0.72435498 0 0 1 -0.725322,-0.72114 0.72435498,0.72435498 0 0 1 0.718899,-0.72755"
       id="path879"
       style="opacity:1;fill:#f23f2b;fill-opacity:1;stroke:none;stroke-width:0.10304631;stroke-linecap:square;stroke-linejoin:round;stroke-miterlimit:3.20000005;stroke-dasharray:none;stroke-opacity:1;paint-order:normal" />
    <path
       style="opacity:1;fill:#f23f2b;fill-opacity:1;stroke:none;stroke-width:0.08958156;stroke-linecap:square;stroke-linejoin:round;stroke-miterlimit:3.20000005;stroke-dasharray:none;stroke-opacity:1;paint-order:normal"
       id="path881"
       d="m 25.491234,302.35034 a 0.62970567,0.62970567 0 0 1 0.62666,0.6308 0.62970567,0.62970567 0 0 1 -0.628858,0.62861 0.62970567,0.62970567 0 0 1 -0.630546,-0.62692 0.62970567,0.62970567 0 0 1 0.624963,-0.63248" />
    <path
       d="m 19.339068,316.83157 a 0.62970567,0.62970567 0 0 1 0.62666,0.6308 0.62970567,0.62970567 0 0 1 -0.628858,0.62861 0.62970567,0.62970567 0 0 1 -0.630546,-0.62692 0.62970567,0.62970567 0 0 1 0.624962,-0.63247"
       id="path883"
       style="opacity:1;fill:#f2da2b;fill-opacity:1;stroke:none;stroke-width:0.08958156;stroke-linecap:square;stroke-linejoin:round;stroke-miterlimit:3.20000005;stroke-dasharray:none;stroke-opacity:1;paint-order:normal" />
    <path
       style="opacity:1;fill:#f2dad3;fill-opacity:1;stroke:none;stroke-width:0.08958156;stroke-linecap:square;stroke-linejoin:round;stroke-miterlimit:3.20000005;stroke-dasharray:none;stroke-opacity:1;paint-order:normal"
       id="path885"
       d="m 22.935719,327.52692 a 0.62970567,0.62970567 0 0 1 0.62666,0.6308 0.62970567,0.62970567 0 0 1 -0.628858,0.6286 0.62970567,0.62970567 0 0 1 -0.630546,-0.62691 0.62970567,0.62970567 0 0 1 0.624963,-0.63248" />
    <path
       d="m 80.387939,321.75335 a 0.72435498,0.72435498 0 0 1 0.720852,0.72561 0.72435498,0.72435498 0 0 1 -0.72338,0.72309 0.72435498,0.72435498 0 0 1 -0.725321,-0.72115 0.72435498,0.72435498 0 0 1 0.718899,-0.72754"
       id="path887"
       style="opacity:1;fill:#fff733;fill-opacity:1;stroke:none;stroke-width:0.10304631;stroke-linecap:square;stroke-linejoin:round;stroke-miterlimit:3.20000005;stroke-dasharray:none;stroke-opacity:1;paint-order:normal" />
    <path
       transform="matrix(0.12361482,-0.01656888,0.01656888,0.12361482,64.919228,257.95505)"
       d="m 48.379569,313.73644 0.591153,4.18394 -3.408996,-2.49671 -3.79649,1.85513 1.32108,-4.01368 -2.937513,-3.03741 4.225469,0.0161 1.981007,-3.73235 1.290403,4.02364 4.161843,0.73069 z"
       id="path889"
       style="opacity:0.93000034;fill:#f6f625;fill-opacity:1;stroke:#f8ffff;stroke-width:0.9631325;stroke-linecap:square;stroke-linejoin:round;stroke-miterlimit:3.20000005;stroke-dasharray:none;stroke-opacity:1;paint-order:normal" />
    <path
       style="opacity:0.93000034;fill:#f634d5;fill-opacity:1;stroke:#f8ffff;stroke-width:0.9631325;stroke-linecap:square;stroke-linejoin:round;stroke-miterlimit:3.20000005;stroke-dasharray:none;stroke-opacity:1;paint-order:normal"
       id="path891"
       d="m 48.379569,313.73644 0.591153,4.18394 -3.408996,-2.49671 -3.79649,1.85513 1.32108,-4.01368 -2.937513,-3.03741 4.225469,0.0161 1.981007,-3.73235 1.290403,4.02364 4.161843,0.73069 z"
       transform="matrix(0.23576533,0.10660758,-0.10660758,0.23576533,109.17112,245.87827)" />
    <path
       transform="matrix(0.23576533,0.10660758,-0.10660758,0.23576533,39.031902,244.67359)"
       d="m 48.379569,313.73644 0.591153,4.18394 -3.408996,-2.49671 -3.79649,1.85513 1.32108,-4.01368 -2.937513,-3.03741 4.225469,0.0161 1.981007,-3.73235 1.290403,4.02364 4.161843,0.73069 z"
       id="path893"
       style="opacity:0.93000034;fill:#f6342e;fill-opacity:1;stroke:#f8ffff;stroke-width:0.9631325;stroke-linecap:square;stroke-linejoin:round;stroke-miterlimit:3.20000005;stroke-dasharray:none;stroke-opacity:1;paint-order:normal" />
    <path
       transform="matrix(0.23576533,0.10660758,-0.10660758,0.23576533,88.632357,273.51569)"
       d="m 48.379569,313.73644 0.591153,4.18394 -3.408996,-2.49671 -3.79649,1.85513 1.32108,-4.01368 -2.937513,-3.03741 4.225469,0.0161 1.981007,-3.73235 1.290403,4.02364 4.161843,0.73069 z"
       id="path895"
       style="opacity:0.93000034;fill:#45b5d5;fill-opacity:1;stroke:#f8ffff;stroke-width:0.9631325;stroke-linecap:square;stroke-linejoin:round;stroke-miterlimit:3.20000005;stroke-dasharray:none;stroke-opacity:1;paint-order:normal" />
    <path
       style="opacity:0.93000034;fill:#f6e22e;fill-opacity:1;stroke:#f8ffff;stroke-width:0.9631325;stroke-linecap:square;stroke-linejoin:round;stroke-miterlimit:3.20000005;stroke-dasharray:none;stroke-opacity:1;paint-order:normal"
       id="path897"
       d="m 48.379569,313.73644 0.591153,4.18394 -3.408996,-2.49671 -3.79649,1.85513 1.32108,-4.01368 -2.937513,-3.03741 4.225469,0.0161 1.981007,-3.73235 1.290403,4.02364 4.161843,0.73069 z"
       transform="matrix(0.23576533,0.10660758,-0.10660758,0.23576533,63.259382,278.94008)" />
    <path
       d="m 45.423104,350.28198 a 0.62970567,0.62970567 0 0 1 0.62666,0.6308 0.62970567,0.62970567 0 0 1 -0.628859,0.62861 0.62970567,0.62970567 0 0 1 -0.630545,-0.62692 0.62970567,0.62970567 0 0 1 0.624962,-0.63248"
       id="path899"
       style="opacity:1;fill:#f22cd3;fill-opacity:1;stroke:none;stroke-width:0.08958156;stroke-linecap:square;stroke-linejoin:round;stroke-miterlimit:3.20000005;stroke-dasharray:none;stroke-opacity:1;paint-order:normal" />
    <path
       style="opacity:1;fill:#ff6e3c;fill-opacity:1;stroke:none;stroke-width:0.10304631;stroke-linecap:square;stroke-linejoin:round;stroke-miterlimit:3.20000005;stroke-dasharray:none;stroke-opacity:1;paint-order:normal"
       id="path901"
       d="m 57.900562,359.36617 a 0.72435498,0.72435498 0 0 1 0.720852,0.72561 0.72435498,0.72435498 0 0 1 -0.72338,0.72309 0.72435498,0.72435498 0 0 1 -0.725321,-0.72114 0.72435498,0.72435498 0 0 1 0.718899,-0.72755" />
  </g>
</svg>
