<?xml version="1.0" encoding="UTF-8" standalone="no"?>
<svg
   xmlns:dc="http://purl.org/dc/elements/1.1/"
   xmlns:cc="http://creativecommons.org/ns#"
   xmlns:rdf="http://www.w3.org/1999/02/22-rdf-syntax-ns#"
   xmlns:svg="http://www.w3.org/2000/svg"
   xmlns="http://www.w3.org/2000/svg"
   xmlns:xlink="http://www.w3.org/1999/xlink"
   xmlns:sodipodi="http://sodipodi.sourceforge.net/DTD/sodipodi-0.dtd"
   xmlns:inkscape="http://www.inkscape.org/namespaces/inkscape"
   id="svg975"
   version="1.1"
   viewBox="0 0 35.277779 35.277777"
   height="100pt"
   width="100pt"
   sodipodi:docname="stars-1.svg"
   inkscape:version="0.92.4 (5da689c313, 2019-01-14)">
  <sodipodi:namedview
     pagecolor="#ffffff"
     bordercolor="#666666"
     borderopacity="1"
     objecttolerance="10"
     gridtolerance="10"
     guidetolerance="10"
     inkscape:pageopacity="0"
     inkscape:pageshadow="2"
     inkscape:window-width="1366"
     inkscape:window-height="712"
     id="namedview825"
     showgrid="false"
     inkscape:zoom="3.8475"
     inkscape:cx="58.688761"
     inkscape:cy="76.530694"
     inkscape:window-x="0"
     inkscape:window-y="0"
     inkscape:window-maximized="1"
     inkscape:current-layer="svg975" />
  <defs
     id="defs969">
    <linearGradient
       inkscape:collect="always"
       id="linearGradient2380">
      <stop
         style="stop-color:#3b3e51;stop-opacity:1"
         offset="0"
         id="stop2376" />
      <stop
         style="stop-color:#323548;stop-opacity:1"
         offset="1"
         id="stop2378" />
    </linearGradient>
    <linearGradient
       inkscape:collect="always"
       xlink:href="#linearGradient2380"
       id="linearGradient2382"
       x1="15.61528"
       y1="15.816548"
       x2="15.676188"
       y2="16.297333"
       gradientUnits="userSpaceOnUse" />
  </defs>
  <metadata
     id="metadata972">
    <rdf:RDF>
      <cc:Work
         rdf:about="">
        <dc:format>image/svg+xml</dc:format>
        <dc:type
           rdf:resource="http://purl.org/dc/dcmitype/StillImage" />
        <dc:title></dc:title>
      </cc:Work>
    </rdf:RDF>
  </metadata>
  <rect
     ry="6.7665777"
     y="11.008836"
     x="0.69369531"
     height="13.533155"
     width="33.959156"
     id="rect2373"
     style="opacity:1;fill:#232232;fill-opacity:1;stroke:#272636;stroke-width:0.27703857;stroke-linecap:round;stroke-linejoin:round;stroke-miterlimit:4;stroke-dasharray:none;stroke-opacity:1;paint-order:normal"
     inkscape:label="rect ombre" />
  <rect
     style="opacity:1;fill:url(#linearGradient2382);fill-opacity:1;stroke:#272636;stroke-width:0.36500002;stroke-linecap:round;stroke-linejoin:round;stroke-miterlimit:4;stroke-dasharray:none;stroke-opacity:1;paint-order:normal"
     id="rect2369"
     width="33.971195"
     height="12.378169"
     x="0.68767601"
     y="11.002816"
     ry="6.1890845"
     inkscape:label="rect bordure" />
  <rect
     inkscape:label="rect inter"
     style="opacity:1;fill:#242333;fill-opacity:1;stroke:#272636;stroke-width:0.22350471;stroke-linecap:round;stroke-linejoin:round;stroke-miterlimit:4;stroke-dasharray:none;stroke-opacity:1;paint-order:normal"
     id="rect2384"
     width="30.840435"
     height="10.074197"
     x="2.3805206"
     y="12.19403"
     ry="5.0370984" />
  <rect
     ry="4.6630774"
     y="12.949057"
     x="2.3735366"
     height="9.3261547"
     width="30.854403"
     id="rect2371"
     style="opacity:1;fill:#272636;fill-opacity:1;stroke:#272636;stroke-width:0.21509539;stroke-linecap:round;stroke-linejoin:round;stroke-miterlimit:4;stroke-dasharray:none;stroke-opacity:1;paint-order:normal"
     inkscape:label="rect inter" />
  <path
     style="opacity:1;fill:#828282;fill-opacity:1;stroke:#424242;stroke-width:0.14500001;stroke-linecap:round;stroke-miterlimit:4;stroke-dasharray:none;stroke-opacity:1"
     id="path2367"
     d="m 29.177534,20.574004 c -0.260515,0.23003 -2.213255,-1.347195 -2.213255,-1.347195 0,0 -2.176587,1.540502 -2.503032,1.328143 -0.326446,-0.212359 0.597322,-2.521237 0.597322,-2.521237 0,0 -2.195339,-1.580812 -2.036616,-1.970108 0.158723,-0.389296 2.582421,-0.211018 2.582421,-0.211018 0,0 0.863357,-2.573434 1.207864,-2.54573 0.344508,0.0277 1.035171,2.39082 1.035171,2.39082 0,0 2.654886,-0.04976 2.805657,0.396754 0.150771,0.446509 -1.965189,1.68863 -1.965189,1.68863 0,0 0.750172,2.560911 0.489657,2.790941 z"
     inkscape:connector-curvature="0"
     sodipodi:nodetypes="zczczczczcz"
     inkscape:label="etoile inactive 2" />
  <path
     sodipodi:nodetypes="zczczczczcz"
     inkscape:connector-curvature="0"
     d="m 20.035839,20.574004 c -0.260515,0.23003 -2.213255,-1.347195 -2.213255,-1.347195 0,0 -2.176587,1.540502 -2.503032,1.328143 -0.326446,-0.212359 0.597322,-2.521237 0.597322,-2.521237 0,0 -2.195339,-1.580812 -2.036616,-1.970108 0.158723,-0.389296 2.582421,-0.211018 2.582421,-0.211018 0,0 0.863357,-2.573434 1.207864,-2.54573 0.344508,0.0277 1.035171,2.39082 1.035171,2.39082 0,0 2.654886,-0.04976 2.805657,0.396754 0.150771,0.446509 -1.965189,1.68863 -1.965189,1.68863 0,0 0.750172,2.560911 0.489657,2.790941 z"
     id="path2365"
     style="opacity:1;fill:#828282;fill-opacity:1;stroke:#424242;stroke-width:0.14500001;stroke-linecap:round;stroke-miterlimit:4;stroke-dasharray:none;stroke-opacity:1"
     inkscape:label="etoile inactive 1" />
  <path
     style="opacity:1;fill:#ffbe06;fill-opacity:1;stroke:#171200;stroke-width:0.14500001;stroke-linecap:round;stroke-miterlimit:4;stroke-dasharray:none;stroke-opacity:1"
     id="path984"
     d="m 10.748266,20.574004 c -0.260515,0.23003 -2.2132549,-1.347195 -2.2132549,-1.347195 0,0 -2.1765868,1.540502 -2.5030323,1.328143 -0.3264455,-0.212359 0.5973218,-2.521237 0.5973218,-2.521237 0,0 -2.1953391,-1.580812 -2.0366159,-1.970108 0.1587232,-0.389296 2.5824208,-0.211018 2.5824208,-0.211018 0,0 0.863357,-2.573434 1.2078648,-2.54573 0.3445077,0.0277 1.0351708,2.39082 1.0351708,2.39082 0,0 2.6548859,-0.04976 2.8056569,0.396754 0.150771,0.446509 -1.965189,1.68863 -1.965189,1.68863 0,0 0.750172,2.560911 0.489657,2.790941 z"
     inkscape:connector-curvature="0"
     sodipodi:nodetypes="zczczczczcz"
     inkscape:label="etoile bas" />
  <path
     style="display:inline;opacity:1;fill:#ffcb3d;fill-opacity:1;stroke:none;stroke-width:0.54803151;stroke-linecap:round;stroke-miterlimit:4;stroke-dasharray:none;stroke-opacity:1"
     d="m 31.683594,50.292969 c -1.302077,-0.104708 -4.564453,9.623047 -4.564453,9.623047 0,0 -9.16182,-0.67448 -9.761719,0.796875 -0.597924,1.466512 7.625438,7.394509 7.679687,7.433593 l 17.958985,-3.71875 c 1.81338,-1.329898 3.472961,-2.798533 3.203125,-3.597656 -0.569843,-1.687612 -10.603516,-1.5 -10.603516,-1.5 0,0 -2.610033,-8.932416 -3.912109,-9.037109 z"
     transform="scale(0.26458335)"
     id="path2339"
     inkscape:label="etoile haut"
     inkscape:connector-curvature="0" />
  <path
     sodipodi:nodetypes="zczczczczcz"
     inkscape:connector-curvature="0"
     d="m 10.748266,20.574004 c -0.260515,0.23003 -2.2132549,-1.347195 -2.2132549,-1.347195 0,0 -2.1765868,1.540502 -2.5030323,1.328143 -0.3264455,-0.212359 0.5973218,-2.521237 0.5973218,-2.521237 0,0 -2.1953391,-1.580812 -2.0366159,-1.970108 0.1587232,-0.389296 2.5824208,-0.211018 2.5824208,-0.211018 0,0 0.863357,-2.573434 1.2078648,-2.54573 0.3445077,0.0277 1.0351708,2.39082 1.0351708,2.39082 0,0 2.6548859,-0.04976 2.8056569,0.396754 0.150771,0.446509 -1.965189,1.68863 -1.965189,1.68863 0,0 0.750172,2.560911 0.489657,2.790941 z"
     id="path2363"
     style="display:inline;opacity:1;fill:none;fill-opacity:1;stroke:#171200;stroke-width:0.14500001;stroke-linecap:round;stroke-miterlimit:4;stroke-dasharray:none;stroke-opacity:1"
     inkscape:label="bordure etoile" />
</svg>
